<svg height="4096" id="svg2" inkscape:export-filename="G:\Users\suitedoalex\sites\merrill-lynch-logo-0.png" inkscape:export-xdpi="96" inkscape:export-ydpi="96" inkscape:version="0.92.4 (5da689c313, 2019-01-14)" sodipodi:docname="merrill-lynch-logo.svg" version="1.1" viewBox="0 0 4096 4096" width="4096" xml:space="preserve" xmlns="http://www.w3.org/2000/svg" xmlns:cc="http://creativecommons.org/ns#" xmlns:dc="http://purl.org/dc/elements/1.1/" xmlns:inkscape="http://www.inkscape.org/namespaces/inkscape" xmlns:rdf="http://www.w3.org/1999/02/22-rdf-syntax-ns#" xmlns:sodipodi="http://sodipodi.sourceforge.net/DTD/sodipodi-0.dtd" xmlns:svg="http://www.w3.org/2000/svg"><metadata id="metadata8"><rdf:rdf><cc:work rdf:about=""><dc:format>image/svg+xml</dc:format><dc:type rdf:resource="http://purl.org/dc/dcmitype/StillImage"></dc:type><dc:title></dc:title></cc:work></rdf:rdf></metadata><defs id="defs6"><clippath clipPathUnits="userSpaceOnUse" id="clipPath20"><path d="M 0,792 H 612 V 0 H 0 Z" id="path18" inkscape:connector-curvature="0"></path></clippath><linearGradient gradientTransform="matrix(130.717,-103.587,-103.587,-130.717,425.09296,708.72638)" gradientUnits="userSpaceOnUse" id="linearGradient44" spreadmethod="pad" x1="0" x2="1" y1="0" y2="0"><stop id="stop38" offset="0" style="stop-opacity:1;stop-color:#ffffff"></stop><stop id="stop40" offset="0.786679" style="stop-opacity:1;stop-color:#f1f0f0"></stop><stop id="stop42" offset="1" style="stop-opacity:1;stop-color:#f1f0f0"></stop></linearGradient><clippath clipPathUnits="userSpaceOnUse" id="clipPath54"><path d="M 0,617.04 H 612 V 738 H 0 Z" id="path52" inkscape:connector-curvature="0"></path></clippath><linearGradient gradientTransform="matrix(58.1586,-67.796303,-67.796303,-58.1586,535.52893,712.34219)" gradientUnits="userSpaceOnUse" id="linearGradient84" spreadmethod="pad" x1="0" x2="1" y1="0" y2="0"><stop id="stop76" offset="0" style="stop-opacity:1;stop-color:#f6f6f5"></stop><stop id="stop78" offset="0.492574" style="stop-opacity:1;stop-color:#f1f1f1"></stop><stop id="stop80" offset="0.799505" style="stop-opacity:1;stop-color:#f1f0f0"></stop><stop id="stop82" offset="1" style="stop-opacity:1;stop-color:#eff0f0"></stop></linearGradient></defs><sodipodi:namedview bordercolor="#666666" borderopacity="1" gridtolerance="10" guidetolerance="10" id="namedview4" inkscape:current-layer="g12" inkscape:cx="-680.87047" inkscape:cy="698.35793" inkscape:pageopacity="0" inkscape:pageshadow="2" inkscape:window-height="837" inkscape:window-maximized="1" inkscape:window-width="1600" inkscape:window-x="-8" inkscape:window-y="-8" inkscape:zoom="0.079013826" objecttolerance="10" pagecolor="#ffffff" showgrid="false"></sodipodi:namedview><g id="g10" inkscape:groupmode="layer" inkscape:label="merrill-lynch-logo" transform="matrix(1.3333333,0,0,-1.3333333,0,4096)"><g id="g12"><g id="g14" inkscape:export-filename="G:\Users\suitedoalex\sites\merrill-lynch-logo-4.png" inkscape:export-xdpi="11.68898" inkscape:export-ydpi="11.68898" transform="matrix(21.727153,0,0,21.727153,-10138.01,-15116.557)"><g clip-path="url(#clipPath20)" id="g16"><g id="g96" transform="translate(531.8795,754.8159)"><path d="M 0,0 H -1.324 L -2.46,-2.36 -3.569,0 h -1.352 v -4.447 h 1.007 v 3.037 l 1.454,-3.037 1.438,3.022 V -4.447 H 0 Z m -44.158,-4.447 h 1.972 c 0.993,0 1.467,0.504 1.467,1.224 0,0.59 -0.316,0.978 -0.949,1.108 0.561,0.129 0.82,0.475 0.82,0.978 0,0.633 -0.475,1.137 -1.468,1.137 h -1.842 z M -29.966,0 h -1.036 V -2.921 L -32.887,0 h -1.151 v -4.447 h 1.036 v 2.922 l 1.885,-2.922 h 1.151 z M 8.761,-4.447 H 9.97 l -1.108,1.886 c 0.604,0.158 0.892,0.604 0.892,1.222 C 9.754,-0.533 9.265,0 8.157,0 H 6.43 v -4.447 h 1.094 v 1.741 H 7.782 Z M -36.904,0 h -1.137 l -1.669,-4.447 h 1.122 l 0.302,0.907 h 1.612 l 0.303,-0.907 h 1.151 z M 46.304,-1.425 C 46.304,-0.533 45.815,0 44.707,0 H 42.98 v -4.447 h 1.094 v 1.598 h 0.633 c 1.108,0 1.597,0.575 1.597,1.424 m -71.928,-3.022 -1.467,2.245 v -2.245 h -1.108 V 0 h 1.108 V -2.13 L -25.695,0 h 1.237 l -1.468,-2.13 1.598,-2.317 z m 27.427,0 h 3.065 v 0.878 H 2.911 v 0.965 h 1.54 v 0.849 h -1.54 v 0.892 H 4.71 L 4.911,0 H 1.803 Z m 15.794,1.181 c -0.431,-0.274 -0.791,-0.389 -1.165,-0.389 -0.834,0 -1.396,0.561 -1.396,1.41 0,0.835 0.562,1.396 1.368,1.396 0.373,0 0.733,-0.101 1.136,-0.388 v 1.021 c -0.374,0.201 -0.792,0.288 -1.281,0.288 -1.482,0 -2.417,-1.022 -2.417,-2.317 0,-1.324 0.921,-2.331 2.431,-2.331 0.504,0 0.936,0.086 1.324,0.288 z m 41.789,-1.181 h 1.109 v 1.655 L 62.121,0 H 60.869 L 59.963,-1.727 59.042,0 h -1.267 l 1.611,-2.763 z m -75.196,0 h 1.109 v 1.741 h 1.41 v 0.864 h -1.41 v 0.979 h 1.698 L -12.802,0 h -3.008 z m 27.141,0 h 1.093 V -3.655 0 h -1.093 z m -53.776,1.886 c 0.359,0 0.604,-0.188 0.604,-0.548 0,-0.388 -0.245,-0.546 -0.604,-0.546 h -0.619 v 1.094 z m 86.965,1.727 c 0.432,0 0.662,-0.188 0.662,-0.576 0,-0.389 -0.23,-0.59 -0.662,-0.59 h -0.446 v 1.166 z m -36.55,0 c 0.432,0 0.662,-0.188 0.662,-0.548 0,-0.373 -0.23,-0.575 -0.662,-0.575 H 7.524 v 1.123 z m -50.53,0.057 c 0.374,0 0.604,-0.159 0.604,-0.518 0,-0.36 -0.23,-0.518 -0.604,-0.518 h -0.504 v 1.036 z m 5.081,-0.288 0.532,-1.626 h -1.065 z M -48.474,0 h -1.136 l -1.669,-4.447 h 1.122 l 0.302,0.907 h 1.612 l 0.302,-0.907 h 1.151 z m -0.575,-1.065 0.532,-1.626 h -1.065 z m 29.666,-3.482 c -1.453,0 -2.389,1.021 -2.389,2.331 0,1.295 0.936,2.317 2.389,2.317 1.453,0 2.389,-1.022 2.389,-2.317 0,-1.31 -0.936,-2.331 -2.389,-2.331 m 0,0.906 c 0.691,0 1.209,0.547 1.209,1.425 0,0.877 -0.518,1.41 -1.209,1.41 -0.69,0 -1.209,-0.533 -1.209,-1.41 0,-0.878 0.519,-1.425 1.209,-1.425 M -7.955,0 h -1.137 l -1.669,-4.447 h 1.122 l 0.302,0.907 h 1.612 l 0.302,-0.907 h 1.152 z m -0.576,-1.065 0.533,-1.626 H -9.063 Z M 21.418,0 h -1.136 l -1.67,-4.447 h 1.123 l 0.302,0.907 h 1.612 l 0.302,-0.907 h 1.151 z m -0.575,-1.065 0.532,-1.626 h -1.064 z m 8.44,-2.201 c -0.431,-0.274 -0.79,-0.389 -1.165,-0.389 -0.834,0 -1.395,0.561 -1.395,1.41 0,0.835 0.561,1.396 1.367,1.396 0.374,0 0.733,-0.101 1.136,-0.388 v 1.021 c -0.374,0.201 -0.792,0.288 -1.281,0.288 -1.482,0 -2.417,-1.022 -2.417,-2.317 0,-1.324 0.921,-2.331 2.431,-2.331 0.505,0 0.936,0.086 1.324,0.288 z m 3.374,-1.281 c -1.454,0 -2.39,1.021 -2.39,2.331 0,1.295 0.936,2.317 2.39,2.317 1.453,0 2.388,-1.022 2.388,-2.317 0,-1.31 -0.935,-2.331 -2.388,-2.331 m 0,0.906 c 0.69,0 1.208,0.547 1.208,1.425 0,0.877 -0.518,1.41 -1.208,1.41 -0.691,0 -1.209,-0.533 -1.209,-1.41 0,-0.878 0.518,-1.425 1.209,-1.425 M 41.268,0 H 39.944 L 38.807,-2.36 37.699,0 h -1.353 v -4.447 h 1.008 v 3.037 l 1.453,-3.037 1.439,3.022 v -3.022 h 1.022 z m 8.369,0 H 48.5 l -1.669,-4.447 h 1.123 l 0.301,0.907 h 1.612 l 0.303,-0.907 h 1.151 z m -0.576,-1.065 0.533,-1.626 H 48.529 Z M 56.574,0 H 55.537 V -2.921 L 53.652,0 H 52.5 v -4.447 h 1.037 v 2.922 l 1.885,-2.922 h 1.152 z" id="path98" inkscape:connector-curvature="0" style="fill:#012169;fill-opacity:1;fill-rule:nonzero;stroke:none"></path></g><g id="g100" transform="translate(492.1595,759.2618)"><path d="M 0,0 H -2.258 V 6.69 L -5.474,0 -8.691,6.69 V 0 h -2.187 v 10.006 h 2.845 l 2.587,-5.403 2.602,5.403 H 0 Z m 4.688,0 h 6.833 V 1.915 H 7.118 v 2.23 h 3.473 V 6.004 H 7.118 V 8.09 h 4.031 l 0.429,1.916 H 4.688 Z M 23.442,0 H 20.797 L 18.596,3.945 H 17.953 V 0 h -2.387 v 10.006 h 3.845 c 2.458,0 3.544,-1.201 3.544,-3.017 0,-1.414 -0.657,-2.372 -2.015,-2.744 z m -2.931,6.89 c 0,0.829 -0.528,1.272 -1.529,1.272 H 17.953 V 5.603 h 1.029 c 1.001,0 1.529,0.429 1.529,1.287 M 34.948,0 H 32.303 L 30.102,3.945 H 29.459 V 0 h -2.387 v 10.006 h 3.845 c 2.459,0 3.545,-1.201 3.545,-3.017 0,-1.414 -0.657,-2.372 -2.015,-2.744 z m -2.93,6.89 c 0,0.829 -0.529,1.272 -1.529,1.272 h -1.03 V 5.603 h 1.03 c 1,0 1.529,0.429 1.529,1.287 M 38.579,0 h 2.429 v 0.802 9.204 h -2.429 z m 7.175,0 h 6.732 v 2.001 h -4.301 v 8.005 h -2.431 z m 10.221,0 h 6.731 v 2.001 h -4.302 v 8.005 h -2.429 z" id="path102" inkscape:connector-curvature="0" style="fill:#012169;fill-opacity:1;fill-rule:nonzero;stroke:none"></path></g><g id="g104" transform="translate(583.676,760.0706)"><path d="M 0,0 C 0,0.436 0.369,0.796 0.828,0.796 1.281,0.796 1.649,0.436 1.649,0 1.649,-0.451 1.281,-0.809 0.828,-0.809 0.369,-0.809 0,-0.451 0,0 m 0.156,0 c 0,-0.368 0.299,-0.651 0.672,-0.651 0.367,0 0.661,0.283 0.661,0.651 0,0.351 -0.294,0.638 -0.661,0.638 C 0.455,0.638 0.156,0.351 0.156,0" id="path106" inkscape:connector-curvature="0" style="fill:#012169;fill-opacity:1;fill-rule:nonzero;stroke:none"></path></g><g id="g108" transform="translate(584.9115,759.6145)"><path d="M 0,0 H -0.155 L -0.42,0.416 H -0.58 V 0 h -0.133 v 0.899 h 0.397 c 0.081,0 0.155,-0.005 0.225,-0.045 0.068,-0.036 0.102,-0.116 0.102,-0.191 0,-0.177 -0.127,-0.241 -0.292,-0.247 z m -0.431,0.526 c 0.133,0 0.31,-0.024 0.31,0.14 0,0.117 -0.103,0.129 -0.223,0.129 H -0.58 V 0.526 Z" id="path110" inkscape:connector-curvature="0" style="fill:#012169;fill-opacity:1;fill-rule:nonzero;stroke:none"></path></g><g id="g112" transform="translate(566.8105,774.0223)"><path d="m 0,0 c -0.435,0.363 -1.385,0.386 -1.862,0.005 l 0.15,-0.3 c 0.548,0.087 1.044,0.078 1.547,0.001 z" id="path114" inkscape:connector-curvature="0" style="fill:#012169;fill-opacity:1;fill-rule:nonzero;stroke:none"></path></g><g id="g116" transform="translate(581.5165,766.2161)"><path d="m 0,0 c -0.62,0.879 -0.829,1.732 -1.711,2.683 1.254,0.196 2.101,0.753 2.522,1.667 0.386,0.836 0.373,1.732 -0.035,2.522 -0.893,1.731 -3.374,2.524 -5.298,2.885 -2.134,0.401 -3.01,0.917 -3.341,1.973 -0.013,0.051 -0.128,0.574 0.181,0.983 0.545,0.723 2.117,0.64 2.239,0.644 0.485,-0.025 0.809,-0.326 1.285,-0.804 0.547,-0.549 1.228,-1.232 2.406,-1.233 0.719,0 1.569,0.28 2.449,1.193 0.728,0.757 1.296,1.914 1.332,1.984 h -7.644 c -1.43,0 -2.434,-0.373 -2.986,-1.109 -0.665,-0.887 -0.37,-1.933 -0.357,-1.977 l 0.002,-0.008 C -8.418,9.664 -6.879,9.039 -4.732,8.636 -2.366,8.192 -0.769,7.38 -0.237,6.349 0.013,5.864 0.018,5.352 -0.224,4.827 -0.61,3.991 -1.658,3.643 -3.428,3.763 c -1.57,0.107 -3.809,0.828 -5.387,2.531 -0.728,0.785 -1.555,1.998 -2.431,3.558 -0.03,0.057 -0.226,0.408 -0.465,0.854 l 1.192,0.022 c -0.059,0.404 -0.328,0.906 -0.617,1.255 0.459,0.565 0.658,1.227 0.658,1.825 -0.07,2.676 -2.792,2.64 -3.717,2.609 0.634,-0.995 0.906,-1.917 0.604,-2.113 -0.299,-0.195 -0.996,0.299 -2.146,0.299 -1.149,0 -1.847,-0.494 -2.146,-0.299 -0.302,0.196 -0.03,1.118 0.604,2.113 -0.924,0.031 -3.646,0.067 -3.716,-2.609 0,-0.598 0.208,-1.24 0.715,-1.866 -0.355,-0.301 -0.635,-0.845 -0.613,-1.214 l 1.015,-0.118 C -20.4,9.073 -21.088,6.902 -21.469,5.473 l 0.001,-10e-4 c -0.416,-1.592 -0.109,-3.08 0.889,-4.361 -0.347,-0.61 -0.373,-1.384 -0.235,-1.994 0.855,-3.775 0.424,-4.186 0.087,-6.072 h 3.371 c 0.052,0.389 0.401,3.015 0.464,4.589 0.739,-0.666 1.491,-1.329 2.114,-1.844 v 0.001 c 1.038,-0.92 2.082,-0.867 2.392,-0.868 0.757,0 1.637,0.102 2.306,0.193 0,0 0.092,1.254 0.171,2.354 l 0.641,0.052 0.071,-0.82 1.062,0.092 c -0.479,-1.829 -1.463,-3.054 -1.876,-3.749 h 3.68 c 0.145,0.239 0.909,1.524 1.374,2.676 1.214,-0.473 2.087,0.189 2.272,0.354 -0.175,-1.29 -0.926,-2.651 -1.092,-3.03 H 0.382 C 0.352,-6.318 0.151,-5.471 1.61,-1.235 0.784,-0.864 0.236,-0.335 0,0 m -0.066,13.357 c -0.415,-0.444 -1.005,-0.897 -1.686,-0.897 -0.704,0 -1.098,0.396 -1.597,0.897 z M -18.357,-5.814 h -0.98 c 0.593,2.668 -0.665,5.285 -0.379,6.016 0.274,-0.244 1.497,-1.363 1.695,-1.544 0.058,-0.835 -0.148,-2.955 -0.336,-4.472 m 11.372,0 h -0.976 c 0.355,0.656 0.771,1.578 1.026,2.712 l 0.633,0.055 c 0.108,-0.202 0.238,-0.389 0.388,-0.556 -0.32,-0.811 -0.767,-1.672 -1.071,-2.211 m 2.664,2.53 c -0.566,0.111 -0.928,0.595 -1.06,0.964 0.318,-0.092 1.739,-0.35 2.141,-0.533 -0.148,-0.212 -0.522,-0.542 -1.081,-0.431 m 3.561,-2.53 h -1.26 c 0.286,0.763 0.617,1.891 0.448,2.684 -0.258,1.216 -1.564,1.49 -2.716,1.732 -0.661,0.138 -1.388,0.29 -1.858,0.571 -0.797,0.476 -0.838,1.634 -0.56,2.314 h -1.193 c -0.409,-1.761 0.468,-2.948 1.264,-3.346 0.002,-0.024 0.005,-0.047 0.007,-0.071 l -1.531,-0.134 -0.069,0.811 -2.832,-0.221 c 0.116,0.443 0.187,0.909 0.189,1.366 h -1.14 c -0.007,-1.067 -0.503,-2.217 -0.917,-2.667 l 1.869,0.152 c -0.036,-0.508 -0.068,-0.939 -0.09,-1.242 -0.645,-0.064 -1.464,-0.108 -1.816,-0.032 -0.722,0.157 -1.305,0.629 -1.559,1.263 -0.314,0.783 -0.133,1.758 0.52,2.833 l -0.866,0.768 c -0.704,-1.096 -0.94,-2.022 -0.945,-2.768 -0.701,0.628 -2.897,2.637 -3.178,2.886 -1.322,1.175 -1.781,2.562 -1.365,4.122 h -0.001 c 0.425,1.589 1.256,4.175 1.77,5.646 0.254,0.749 0.287,0.818 0.376,1.076 -0.922,0.169 -1.632,1.053 -1.642,1.879 -0.008,0.714 0.531,1.384 1.074,1.447 -0.236,-0.428 -0.199,-1.133 -0.065,-1.414 0.126,-0.27 0.474,-0.694 1.052,-0.694 0.388,0 1.079,0.316 2.057,0.316 v 0 0 c 0.978,0 1.67,-0.316 2.057,-0.316 0.578,0 0.926,0.424 1.052,0.694 0.135,0.281 0.171,0.986 -0.065,1.414 0.55,-0.079 1.074,-0.747 1.074,-1.447 0,-0.64 -0.445,-1.598 -1.428,-1.632 -0.165,-0.007 -0.351,0.011 -0.491,0.009 -1.635,-0.03 -1.723,-1.336 -1.418,-2.603 0.087,-0.363 -0.042,-0.666 -0.042,-0.666 h -2.12 l 0.365,-0.732 c 0.609,0.137 1.662,0.143 2.257,-0.005 V 8.18 l 0.427,0.736 -0.174,0.6 1.067,1.535 c 0.316,-0.632 0.881,-1.658 0.914,-1.716 0.746,-1.379 1.073,-2.643 0.971,-3.761 -0.041,-0.441 -0.145,-0.819 -0.284,-1.142 l 0.887,-0.786 c 0.429,0.777 0.579,1.74 0.553,2.435 0.161,-0.2 0.322,-0.388 0.484,-0.563 1.615,-1.743 3.832,-2.586 5.562,-2.83 L -4.09,2.687 c 1.535,-0.247 2.097,-1.469 2.504,-2.239 0.607,-1.146 0.903,-1.532 1.812,-2.211 -0.114,-0.353 -0.842,-2.6 -0.986,-4.051 m -12.842,17.43 c 0.024,-0.578 -0.292,-1.002 -0.934,-1.03 -0.024,0.578 0.291,1.005 0.934,1.03" id="path118" inkscape:connector-curvature="0" style="fill:#012169;fill-opacity:1;fill-rule:nonzero;stroke:none"></path></g><g id="g120" transform="translate(564.8931,776.7208)"><path d="M 0,0 C -0.744,0.032 -1.109,0.524 -1.082,1.193 -0.338,1.163 0.028,0.669 0,0" id="path122" inkscape:connector-curvature="0" style="fill:#012169;fill-opacity:1;fill-rule:nonzero;stroke:none"></path></g></g></g></g></g></svg>